<svg xmlns="http://www.w3.org/2000/svg" xmlns:xlink="http://www.w3.org/1999/xlink" viewBox="0,0,256,256" width="48px" height="48px" fill-rule="nonzero"><g fill="none" fill-rule="nonzero" stroke="none" stroke-width="1" stroke-linecap="butt" stroke-linejoin="miter" stroke-miterlimit="10" stroke-dasharray="" stroke-dashoffset="0" font-family="none" font-weight="none" font-size="none" text-anchor="none" style="mix-blend-mode: normal"><g transform="scale(0.5,0.5)"><path d="M208.6,240.5c-0.8,-0.3 -1.6,-0.6 -2.4,-1c-11.3,-5.7 -18.5,-15.5 -28.1,-23.2c-9.8,-8 -19.8,-16 -27.7,-26c-6.3,-7.9 -10.2,-16.7 -13.1,-26.1c-15.4,0.6 -31.4,-3.8 -46.6,0.1c-11.9,3 -24.4,5.3 -35.4,10.7c-4.3,2.1 -10.3,5.6 -12.2,10.3c-1.7,4 3.1,8.4 5.5,11.1c6.6,7.5 16.1,18.7 10.9,29.5c-4.3,8.9 -17.7,12.9 -18.8,23.5c-0.6,6.1 4.3,11.6 8,15.9c4.3,4.9 8.7,9.3 13.6,13.5c18.9,16 40.3,26 65.5,23.3c26.2,-2.8 52.3,-15.5 73.4,-31.1c-0.2,-1.7 0.2,-3.5 1.2,-4.9c5.4,-8 6.1,-16.5 6.2,-25.6zM166.9,248.2c-6.3,-7 -14.3,-6.2 -22.9,-6.1c-7.1,0 -7.9,-10.9 -0.8,-11c11.4,-0.1 22.8,-0.4 31.1,8.9c4.6,5.1 -2.6,13.5 -7.4,8.2zM440,222.2c-1.8,-11.2 -5.7,-22 -7.2,-33.3c-1.5,-11 2.3,-24.4 -2.5,-34.8c-4.9,-10.5 -18.8,-13.2 -29.2,-13.5c-10.2,-0.3 -20.3,0.6 -30.4,2.6c-10.1,2 -20.3,4.5 -29.9,8.3c-8.3,3.3 -18,7.6 -22.8,15.6c-1.3,2.2 -3.5,2.9 -5.5,2.7c-0.9,2.7 -1.9,5.5 -3.1,8.1c-7.3,15.9 -19.7,28.4 -32.6,40.5c-0.5,0.8 -1.1,1.6 -1.7,2.3c-0.9,1.1 -1.9,2.1 -2.9,3.1c-0.9,0.9 -1.9,1.4 -3,1.7c-5.7,5.3 -11.3,10.7 -16.5,16.3c-0.5,0.6 -1,1 -1.6,1.3c0.1,5.3 0.5,10.4 2.1,15.4c10.6,6.4 18.8,15.8 28.4,23.6c10.9,9 23.7,13.9 37.9,14c14.1,0.1 28.5,-2.2 42.2,-5.4c12.9,-3 25.8,-7.1 37.5,-13.4c11.7,-6.3 23.4,-14.3 32.2,-24.4c7.7,-9 10.4,-19 8.6,-30.7zM375,231.5c-33.2,0.2 -65.5,10 -96.1,22.2c-6.6,2.6 -10.2,-7.8 -3.6,-10.4c31.4,-12.5 64.8,-22.6 98.9,-22.8c7,0 7.9,11 0.8,11z" fill="#1ff668"></path><path d="M210.6,331.3c4,-15.1 7.9,-30.1 12.3,-45.1c-0.2,-0.4 -0.4,-0.8 -0.5,-1.3c-1,-4.6 -5.9,-6.7 -10.8,-8.1c-0.1,0.1 -0.3,0.3 -0.4,0.4c-18.6,14.4 -40.4,25.7 -63.1,31.9c-14,3.8 -28.3,5.4 -42.3,3.4c0,0.5 -0.1,1.1 -0.3,1.7c-3,9.3 -4,19.1 -3.8,28.9c0.2,7.6 0.3,15.8 2,23.3c1.2,5.2 3.7,16.8 10.5,17.5c3.2,0.3 6.4,-0.5 9.6,-0.4c3.9,0.1 6.8,1.5 10.1,3.6c6.9,4.4 7.1,11.4 5.1,18.6c-0.7,2.6 -2,5.2 0.6,7c2.4,1.6 5.7,2.2 8.6,2.5c7.9,0.9 15.9,0.6 23.5,-1.7c7.5,-2.2 14.7,-5.4 22.4,-6.8c1.2,-0.2 2.2,-0.1 3.1,0.3v0c1.3,-0.6 2.6,-1.2 3.9,-1.8c-0.4,-1.1 -0.8,-2.3 -1,-3.4c-2.3,-9.3 -1.9,-18.8 -0.2,-28.2c2.5,-14.5 7,-28.3 10.7,-42.3zM199.2,326.6c-6.9,5.5 -15.9,10.2 -19.1,18.9c-2.5,6.6 -12.3,1.7 -9.9,-4.9c3.9,-10.5 14.5,-16.5 22.9,-23.1c5.5,-4.4 11.6,4.7 6.1,9.1z" fill="#1ff668"></path><path d="M240.2,244.8c-6.6,0.4 -13,3 -19.7,3.2c-0.5,0 -0.9,0 -1.3,-0.1c-0.6,6.5 -1.9,12.6 -4.7,18.6c5.4,1.8 10.9,3.8 14.6,7.7c1.8,-2.4 3.2,-5.2 4.9,-7.7c1.8,-2.6 3.8,-4.7 6.2,-6.5c0.2,-1 0.6,-2.1 1.3,-2.9c-0.9,-4 -1.2,-8.1 -1.3,-12.3zM231,258.5c-7.1,0 -7.9,-11 -0.8,-11c7,0.1 7.9,11 0.8,11z" fill="#febf10"></path><path d="M484.9,407.6c-0.3,-5.5 -0.9,-10.9 -1.9,-16.3c-1.6,-8.2 -3.5,-16.3 -7.3,-23.8c-2.6,-5.3 -5.6,-10.6 -7.5,-16.2c-1.7,-5.2 -2.7,-10.8 0.6,-15.6c2,-2.9 5.1,-4.1 8.4,-4.4c-7.5,-26 -34.3,-51.1 -61.7,-50.2c-0.3,0 -0.6,0 -0.9,0c-9.4,6 -19.6,10.9 -30.1,14.6c-4,1.4 -8,2.6 -12.1,3.7c6.9,2 13.5,5.3 19.7,8.6c0.4,0.2 0.8,0.4 1.2,0.7c-0.1,-2.7 1.4,-5.4 4.9,-5.5c10,-0.4 18.3,-7.1 28.5,-7.5c7.1,-0.2 7.9,10.7 0.8,11c-9,0.3 -16.6,5.8 -25.4,7.2c4.3,2.7 8.5,5.4 12.5,8.4c0.6,-1.1 1.6,-1.9 3.2,-2.3c6.3,-1.5 13.6,-3.3 20,-3.3h10.3c7.1,0 7.9,11 0.8,11c-8.5,0 -16.5,0.5 -24.8,2.1c19,15.5 40.6,32.4 48.1,56.6c0.4,0.9 0.7,1.9 0.8,2.9c0.6,6.1 -9,8.3 -10.7,2.2c-0.1,-0.3 -0.2,-0.6 -0.3,-0.9c-0.1,-0.1 -0.3,-0.4 -0.6,-0.8c-1,-1.3 -1.3,-2.7 -1.1,-3.9c-6.9,-17.2 -21.9,-30.2 -36.3,-41.9c3.1,15.5 6.8,30.9 6.9,46.8c0.1,7.1 -10.9,7.9 -11,0.8c-0.2,-19.8 -5.8,-38.7 -8.9,-58.2c-5.5,-4.3 -11.3,-8.2 -17.3,-11.8c0.8,8.4 3,16.7 3.2,25.2c0.2,9 -1.5,19.1 2.3,27.5c2.9,6.5 -7.5,10 -10.4,3.6c-4.1,-9 -2.6,-19.3 -2.8,-28.8c-0.2,-10.5 -3.2,-20.6 -3.5,-31.1c0,-0.9 0.2,-1.8 0.5,-2.5c-7.2,-3.8 -15.1,-7.3 -23.1,-7.5c-0.4,0 -0.8,-0.1 -1.2,-0.1c11,12.9 19.1,29.2 19.7,46.2c0.4,10 -1.9,19 -5.4,28.3c-2.4,6.4 -5.3,12.8 -9,18.6c0.3,0.5 0.5,1.1 0.7,1.7c2.7,12.2 14.5,20.7 24.8,26.4c8.6,4.8 18,9.1 27.8,11.1c0.3,-6.1 0.4,-12.4 -2.4,-17.6c-1.7,-3.1 -0.3,-6.1 2,-7.7c1.2,-4 8.3,-5.2 10.8,-0.2c0.9,1.8 5.3,2.9 7,3.3c4,1.1 8,1.8 12.1,2.4c7.5,1.1 14.5,3.2 21.9,5c4.5,1.1 13,3.7 15.1,-2.2c1.7,-4.7 1.3,-10.7 1.1,-15.6z" fill="#71c598"></path><path d="M305,88.8c-3.6,-8.3 -9.3,-16 -14.8,-23.2c-10,-13.2 -26.1,-33.1 -45.1,-29.4c-12.1,2.3 -22.6,10.5 -35.1,10.8c-9.9,0.3 -21.1,-2.2 -30.8,0.7c-11.7,3.5 -20.1,14 -25.8,24.3c-6.3,11.3 -10.1,23.7 -11.4,36.6c-1.3,12.9 -0.3,26.1 2.4,38.8c2.6,12.6 6.1,25.3 14.3,35.6c7.9,10 18.1,18 28,26c9.3,7.6 16.3,18.8 28.6,22.2c2.4,0.7 3.7,2.5 4.1,4.4c0.2,0.4 0.3,0.9 0.3,1.5h0.1c8.6,-0.3 16.5,-3.6 25.2,-3.1c7.3,-7.9 15.1,-15.3 22.9,-22.7c0.5,-0.8 1.2,-1.4 2,-1.9c0.8,-0.8 1.6,-1.5 2.4,-2.3c8.4,-8.2 17.6,-16.6 23.6,-26.8c10.1,-17.3 12.3,-39.1 13.8,-58.8c0.6,-11.2 -0.2,-22.4 -4.7,-32.7zM231.4,199.4c-3.9,-12.1 -5.5,-24.7 -8.9,-36.9c-2.6,-8.9 -7.4,-18.2 -7.9,-27.5c-0.3,-7.1 10.7,-7.9 11,-0.8c0.2,4.6 2.1,9 3.6,13.3c1.8,4.9 3.3,9.9 4.5,14.9c2.7,11.1 4.5,22.5 8,33.4c2.2,6.7 -8.1,10.3 -10.3,3.6zM364.8,340.3c-4.2,-12.3 -11.4,-23.2 -20.9,-32.1c-0.9,-0.9 -1.5,-1.9 -1.7,-2.9c-11.2,1.6 -22.6,2.6 -33.8,0.8c-12.7,-2 -24.4,-7.6 -34.2,-15.9c-8.7,-7.3 -16.4,-16.1 -26.2,-22.1c-6.2,3.2 -8.6,11 -13.4,16.2c0,0.4 -0.1,0.8 -0.2,1.2c-4.6,15.9 -8.8,31.8 -13,47.8c-3.6,13.6 -8.1,27 -10.6,40.9c-1.5,8.6 -2.7,18.1 0.4,26.6c0.7,0.2 1.3,0.6 1.9,1.1c1.5,1.4 2.3,3.8 1.7,5.8c3.9,5.8 9.6,10.5 15.5,14.2c6,3.8 12.5,8.2 19.4,10c6.9,1.7 12.7,0.7 19.2,-2.1c11.1,-4.9 19.8,-14.5 31.7,-17.7c7.3,-2 14.5,-2.2 22,-2.2c6.4,0 15.8,0.8 21.4,-3.2c10,-7.2 15.6,-19.4 19.6,-30.6c4.4,-11.9 5.3,-23.7 1.2,-35.8zM262.5,363.5c-5.1,0.8 -6.9,-4.9 -4.8,-8.4c0,-0.3 0,-0.6 0,-0.8c-0.1,-1.5 -0.3,-3 -0.6,-4.5c-0.7,-3.8 -1.7,-7.5 -2.7,-11.2c-1.8,-6.3 -3.7,-14.3 -7.3,-19.4c-4.1,-5.8 5,-11.9 9.1,-6.2c5.5,7.8 8,18.9 10.2,28c1.4,6.2 6.2,21 -3.9,22.5z" fill="#1ff668"></path><path d="M493.2,386.8c-1.6,-7.9 -3.5,-15.7 -7.1,-23c-2.8,-5.6 -5.8,-11.1 -7.8,-17c-0.3,-1.1 -0.6,-2.1 -0.7,-3.2c-0.1,-0.5 0,-1.1 0,-1.3c0.1,0 0.2,-0.1 0.5,-0.1c1.4,-0.5 3.5,0.1 4.9,0.3c3.3,0.5 7.1,-2.2 6.5,-5.8c-4.9,-29.9 -31,-59.2 -61.5,-65.4c7.3,-6 14,-12.9 18.6,-21c11.7,-20.7 -0.8,-43.8 -3.2,-65.1c-1.9,-16.3 3.7,-33.7 -11.2,-45.7c-13.2,-10.6 -31.2,-10.6 -47.3,-9.4c-14,1 -28.3,4.5 -41.6,8.9c-9.4,3.1 -19.2,7.2 -26.8,13.7c0.5,-3 0.9,-6.1 1.4,-9.1c1.8,-13.2 3.9,-26.6 2.3,-39.9c-1.5,-12.6 -6.8,-23.6 -13.8,-34c-6.6,-9.8 -13.9,-19.2 -22.3,-27.5c-8.1,-8 -17.4,-14 -28.4,-16.6c-12.2,-2.9 -24.2,3.9 -35.2,8c-11,4.2 -22.2,2 -33.7,2.3c-10.6,0.2 -20,4.2 -27.8,11.3c-19.4,17.7 -27.8,44.7 -28.6,70.3c-0.4,12.1 1.3,24.2 4,36.1c-12.9,0.2 -25.8,-2.2 -38.7,-1c-11.2,1.1 -23.2,4.9 -34,8.3c-10.2,3.3 -21,8.2 -27.1,17.4c-7.1,10.6 0.7,19.7 7.7,27.7c3.1,3.6 8,8.8 7.6,14c-0.3,3.7 -4.9,6.4 -7.4,8.6c-9.3,7.9 -15.9,18.6 -11,30.9c4.5,11.4 15.7,21.1 24.8,28.8c9,7.6 18.9,14.3 29.8,19c3.2,1.3 6.4,2.4 9.6,3.3c-0.4,0.5 -0.7,1.1 -0.9,1.8c-5.5,17.2 -5.3,37.6 -1.9,55.2c1.4,7.4 3.7,15.5 9,21.2c3,3.2 6,5.3 10.4,6.2c4.1,0.8 8.2,-0.7 12.3,-0.2c4.2,0.5 5.3,3.4 4.5,6.9c-0.9,3.6 -1.9,6.8 -1.8,10.5c0.3,8.3 9.7,12.3 16.6,13.7c7.5,1.6 16.2,1.5 23.7,0.2c9.5,-1.7 18.2,-6.4 27.6,-8.1c0.6,-0.1 1.2,-0.3 1.6,-0.6c1.3,0.7 2.9,0.9 4.3,0.3c1.8,-0.9 3.6,-1.7 5.4,-2.6c2.6,3.6 5.7,6.9 9,9.8c9.5,8.2 21.8,15.7 34,18.7c12.8,3.2 25.5,-3 35.9,-10c4.9,-3.3 9.6,-6.8 15,-9.1c6.9,-3 14.4,-3.2 21.7,-3.1c7.1,0 13.9,-0.1 20.8,-1.8c5.3,-1.3 9.5,-4.2 13.3,-7.9c4.7,11.7 16.2,20.2 26.6,26.5c11.5,7 25.5,13 39.1,14.2c3.7,0.4 6.5,-2 6.5,-5.8c0.1,-6.3 0.5,-12.5 -0.4,-18.6c9.3,4 21.8,3.9 30.3,6.3c7.4,2.1 15.2,4.7 23,3.7c8.4,-1.1 13.1,-7.6 14.3,-15.6c1.5,-12 -0.1,-24.2 -2.4,-35.6zM318,167c4.8,-7.9 14.5,-12.3 22.8,-15.6c9.6,-3.8 19.8,-6.3 29.9,-8.3c10,-2 20.1,-2.9 30.4,-2.6c10.4,0.3 24.2,3 29.2,13.5c4.9,10.3 1.1,23.7 2.5,34.8c1.5,11.3 5.4,22.1 7.2,33.3c1.8,11.7 -0.8,21.7 -8.6,30.7c-8.8,10.1 -20.5,18.1 -32.2,24.4c-11.7,6.3 -24.6,10.3 -37.5,13.4c-13.7,3.2 -28.1,5.5 -42.2,5.4c-14.2,-0.1 -27,-5.1 -37.9,-14c-9.5,-7.8 -17.8,-17.2 -28.4,-23.6c-1.6,-5.1 -2,-10.2 -2.1,-15.4c0.6,-0.3 1.1,-0.7 1.6,-1.3c5.1,-5.6 10.7,-11 16.5,-16.3c1.1,-0.3 2.2,-0.8 3,-1.7c1,-1 2,-2 2.9,-3.1c0.6,-0.7 1.2,-1.4 1.7,-2.3c12.9,-12.1 25.3,-24.6 32.6,-40.5c1.2,-2.6 2.2,-5.3 3.1,-8.1c2,0.2 4.2,-0.5 5.5,-2.7zM141.9,108.6c1.3,-12.9 5.1,-25.3 11.4,-36.6c5.7,-10.3 14.1,-20.8 25.8,-24.3c9.7,-2.9 20.9,-0.4 30.8,-0.7c12.5,-0.3 23.1,-8.5 35.1,-10.8c19,-3.7 35.1,16.2 45.1,29.4c5.5,7.2 11.2,14.9 14.8,23.2c4.5,10.3 5.4,21.6 4.5,32.7c-1.5,19.6 -3.7,41.4 -13.8,58.8c-6,10.2 -15.2,18.7 -23.6,26.8c-0.8,0.8 -1.6,1.5 -2.4,2.3c-0.8,0.5 -1.5,1.1 -2,1.9c-7.8,7.4 -15.6,14.8 -22.9,22.7c-8.7,-0.6 -16.6,2.8 -25.2,3.1h-0.1c0,-0.6 -0.2,-1 -0.3,-1.5c-0.4,-2 -1.7,-3.8 -4.1,-4.4c-12.3,-3.4 -19.3,-14.6 -28.6,-22.2c-9.9,-8 -20.1,-16 -28,-26c-8.1,-10.3 -11.6,-23 -14.3,-35.6c-2.4,-12.7 -3.4,-25.9 -2.2,-38.8zM241.5,257.2c-0.7,0.8 -1.1,1.9 -1.3,2.9c-2.4,1.7 -4.5,3.9 -6.2,6.5c-1.7,2.5 -3.1,5.3 -4.9,7.7c-3.6,-3.9 -9.2,-5.9 -14.6,-7.7c2.8,-6 4.1,-12.1 4.7,-18.6c0.4,0.1 0.9,0.1 1.3,0.1c6.6,-0.2 13.1,-2.8 19.7,-3.2c0.1,4.1 0.4,8.2 1.3,12.3zM62.3,278.7c-4.9,-4.2 -9.4,-8.6 -13.6,-13.5c-3.7,-4.3 -8.6,-9.8 -8,-15.9c1,-10.6 14.5,-14.6 18.8,-23.5c5.2,-10.8 -4.3,-22 -10.9,-29.5c-2.4,-2.7 -7.2,-7.1 -5.5,-11.1c1.9,-4.7 7.9,-8.2 12.2,-10.3c11.1,-5.4 23.6,-7.7 35.4,-10.7c15.2,-3.9 31.2,0.5 46.6,-0.1c2.9,9.4 6.8,18.2 13.1,26.1c7.9,10 17.9,18 27.7,26c9.6,7.8 16.8,17.6 28.1,23.2c0.8,0.4 1.6,0.7 2.4,1c-0.1,9.1 -0.8,17.6 -6.1,25.4c-0.9,1.4 -1.4,3.2 -1.2,4.9c-21.1,15.6 -47.2,28.3 -73.4,31.1c-25.3,2.8 -46.7,-7.1 -65.6,-23.1zM200.1,401.7c0.3,1.2 0.6,2.3 1,3.4c-1.3,0.6 -2.6,1.1 -3.9,1.8v0c-0.8,-0.4 -1.8,-0.5 -3.1,-0.3c-7.7,1.5 -14.9,4.6 -22.4,6.8c-7.6,2.3 -15.6,2.6 -23.5,1.7c-2.8,-0.3 -6.1,-0.9 -8.6,-2.5c-2.6,-1.8 -1.4,-4.3 -0.6,-7c2,-7.2 1.8,-14.2 -5.1,-18.6c-3.2,-2.1 -6.1,-3.5 -10.1,-3.6c-3.2,-0.1 -6.4,0.7 -9.6,0.4c-6.8,-0.7 -9.3,-12.3 -10.5,-17.5c-1.7,-7.4 -1.8,-15.7 -2,-23.3c-0.3,-9.8 0.8,-19.6 3.8,-28.9c0.2,-0.6 0.3,-1.2 0.3,-1.7c14,2 28.4,0.4 42.3,-3.4c22.7,-6.2 44.5,-17.4 63.1,-31.9c0.2,-0.1 0.3,-0.3 0.4,-0.4c4.9,1.5 9.8,3.5 10.8,8.1c0.1,0.5 0.3,0.9 0.5,1.3c-4.3,15 -8.3,30.1 -12.3,45.1c-3.7,14 -8.3,27.8 -10.8,42.1c-1.6,9.5 -2,19.1 0.3,28.4zM344.1,406.7c-5.5,4 -14.9,3.2 -21.4,3.2c-7.5,-0.1 -14.7,0.2 -22,2.2c-12,3.2 -20.6,12.8 -31.7,17.7c-6.4,2.9 -12.3,3.9 -19.2,2.1c-7,-1.7 -13.4,-6.2 -19.4,-10c-5.9,-3.7 -11.6,-8.4 -15.5,-14.2c0.6,-2 -0.1,-4.5 -1.7,-5.8c-0.6,-0.5 -1.2,-0.9 -1.9,-1.1c-3.1,-8.5 -1.9,-17.9 -0.4,-26.6c2.4,-13.8 6.9,-27.3 10.6,-40.9c4.3,-16 8.4,-32 13,-47.8c0.1,-0.4 0.2,-0.8 0.2,-1.2c4.8,-5.2 7.2,-13 13.4,-16.2c9.7,5.9 17.5,14.8 26.2,22.1c9.8,8.3 21.5,13.9 34.2,15.9c11.2,1.8 22.6,0.8 33.8,-0.8c0.2,1 0.7,2 1.7,2.9c9.5,8.9 16.7,19.8 20.9,32.1c4.1,12.1 3.2,23.9 -1,35.8c-4.2,11.2 -9.8,23.4 -19.8,30.6zM483.8,423.2c-2.1,5.9 -10.7,3.3 -15.1,2.2c-7.4,-1.7 -14.4,-3.9 -21.9,-5c-4.1,-0.6 -8.1,-1.3 -12.1,-2.4c-1.7,-0.5 -6.1,-1.5 -7,-3.3c-2.4,-5.1 -9.6,-3.8 -10.8,0.2c-2.3,1.6 -3.7,4.6 -2,7.7c2.8,5.1 2.7,11.5 2.4,17.6c-9.8,-2 -19.2,-6.3 -27.8,-11.1c-10.3,-5.7 -22.1,-14.2 -24.8,-26.4c-0.2,-0.7 -0.4,-1.3 -0.7,-1.7c3.7,-5.8 6.6,-12.3 9,-18.6c3.5,-9.3 5.8,-18.3 5.4,-28.3c-0.7,-17 -8.7,-33.2 -19.7,-46.2c0.4,0.1 0.8,0.1 1.2,0.1c7.9,0.2 15.9,3.7 23.1,7.5c-0.3,0.7 -0.5,1.5 -0.5,2.5c0.2,10.4 3.3,20.6 3.5,31.1c0.2,9.6 -1.3,19.8 2.8,28.8c2.9,6.4 13.3,2.8 10.4,-3.6c-3.8,-8.4 -2.1,-18.6 -2.3,-27.5c-0.2,-8.5 -2.4,-16.8 -3.2,-25.2c6,3.6 11.8,7.5 17.3,11.8c3.1,19.4 8.8,38.3 8.9,58.2c0.1,7.1 11,6.2 11,-0.8c-0.1,-15.9 -3.8,-31.3 -6.9,-46.8c14.4,11.8 29.3,24.8 36.3,41.9c-0.2,1.2 0,2.6 1.1,3.9c0.3,0.4 0.5,0.7 0.6,0.8c0.1,0.3 0.2,0.6 0.3,0.9c1.7,6.1 11.2,3.9 10.7,-2.2c-0.1,-1 -0.4,-2 -0.8,-2.9c-7.5,-24.1 -29.1,-41.1 -48.1,-56.6c8.3,-1.6 16.3,-2.1 24.8,-2.1c7.1,0 6.2,-11 -0.8,-11h-10.3c-6.5,0 -13.7,1.8 -20,3.3c-1.6,0.4 -2.6,1.2 -3.2,2.3c-4.1,-3 -8.2,-5.8 -12.5,-8.4c8.8,-1.4 16.4,-6.9 25.4,-7.2c7.1,-0.2 6.2,-11.2 -0.8,-11c-10.1,0.4 -18.5,7.1 -28.5,7.5c-3.5,0.1 -5,2.8 -4.9,5.5c-0.4,-0.2 -0.8,-0.4 -1.2,-0.7c-6.2,-3.4 -12.8,-6.6 -19.7,-8.6c4.1,-1.1 8.1,-2.3 12.1,-3.7c10.6,-3.6 20.7,-8.5 30.1,-14.6c0.3,0 0.6,0.1 0.9,0c27.4,-0.9 54.2,24.2 61.7,50.2c-3.3,0.3 -6.4,1.5 -8.4,4.4c-3.3,4.7 -2.3,10.4 -0.6,15.6c1.9,5.6 4.8,10.9 7.5,16.2c3.7,7.5 5.7,15.6 7.3,23.8c1,5.4 1.6,10.8 1.9,16.3c0.2,4.9 0.6,10.9 -1.1,15.6z" fill="#000000"></path><path d="M230.2,247.6c-7.1,0 -6.2,11 0.8,11c7.1,-0.1 6.2,-11 -0.8,-11zM374.1,220.6c-34.1,0.2 -67.5,10.3 -98.9,22.8c-6.6,2.6 -3,13 3.6,10.4c30.6,-12.2 62.9,-22 96.1,-22.2c7.2,-0.1 6.3,-11.1 -0.8,-11zM241.8,195.7c-3.5,-10.9 -5.3,-22.3 -8,-33.4c-1.2,-5 -2.8,-10 -4.5,-14.9c-1.5,-4.3 -3.4,-8.7 -3.6,-13.3c-0.3,-7.1 -11.3,-6.2 -11,0.8c0.4,9.4 5.3,18.6 7.9,27.5c3.5,12.2 5,24.8 8.9,36.9c2.1,6.8 12.4,3.2 10.3,-3.6zM174.2,239.9c-8.3,-9.2 -19.6,-8.9 -31.1,-8.9c-7.1,0 -6.2,11 0.8,11c8.6,-0.1 16.7,-0.8 22.9,6.1c4.9,5.4 12.1,-3 7.4,-8.2zM266.3,341c-2.2,-9.1 -4.7,-20.3 -10.2,-28c-4.1,-5.8 -13.2,0.3 -9.1,6.2c3.6,5.1 5.5,13.1 7.3,19.4c1.1,3.7 2,7.4 2.7,11.2c0.3,1.5 0.5,3 0.6,4.5c0,0.3 0,0.6 0,0.8c-2.1,3.5 -0.3,9.1 4.8,8.4c10.2,-1.5 5.4,-16.3 3.9,-22.5zM193,317.5c-8.4,6.6 -18.9,12.6 -22.9,23.1c-2.4,6.6 7.4,11.5 9.9,4.9c3.2,-8.7 12.2,-13.4 19.1,-18.9c5.6,-4.4 -0.5,-13.5 -6.1,-9.1z" fill="#000000"></path></g></g></svg>